<svg xmlns="http://www.w3.org/2000/svg" width="1000" height="1000">
      <g transform="translate(500.0133370498939,499.9866629501061) scale(833.0794753872436)">
        <path
    fill="#8000ff"
    fill-opacity="1"
    stroke="#decd87"
    stroke-opacity="1"
    stroke-width="0"
    vector-effect="non-scaling-stroke"
   d="M 0.4242640687119285,-0.42426406871192845 C 0.4345975037626349,-0.4139306336612221 0.44454996568564614,-0.40322312405017785 0.45410154171980177,-0.3921629633299134 C 0.4636531177539574,-0.3811028026096492 0.4727974312984159,-0.36969737450719614 0.48151618652517036,-0.35796949886024826 C 0.490234941751925,-0.3462416232133003 0.4985223180485745,-0.33419912951318453 0.5063617341364243,-0.32186611223046335 C 0.5142011502242739,-0.30953309494774234 0.5215873725348485,-0.29691778756431475 0.5285056228070617,-0.2840454306291861 C 0.535423873079275,-0.27117307369405746 0.5418695327119297,-0.25805226075051 0.547829705309965,-0.24470924375674263 C 0.5537898779080003,-0.23136622676297533 0.5592605844797326,-0.21780991347338205 0.5642308793039742,-0.20406742718979956 C 0.5692011741282156,-0.19032494090621718 0.573667739052439,-0.17640545606742755 0.5776216374294876,-0.16233682260435428 C 0.5815755358065362,-0.14826818914128095 0.5850141280268182,-0.13405979922749373 0.5879305341980877,-0.1197400808315715 C 0.5908469403693571,-0.10542036243564934 0.5932392135084169,-0.0909988753546398 0.5951025671851337,-0.07650447391926492 C 0.5969659208618503,-0.06201007248388992 0.5982991111074194,-0.04745243310902163 0.5990994704914955,-0.03286068253718628 C 0.5998998298755716,-0.01826893196535093 0.6001668240808542,-0.003652811601384842 0.5998999189086819,0.010958434804155025 C 0.5996330137365093,0.025569681209694894 0.5988323873718996,0.04016629923661769 0.5974996416980548,0.05471908415439821 C 0.5961668960242099,0.06927186907217876 0.5943029207777721,0.08377110548932372 0.5919114453770679,0.098187783515213 C 0.5895199699763637,0.11260446154110228 0.5866025909625291,0.12692895664875728 0.5831651453909548,0.14113260856778134 C 0.5797276998193804,0.15533626048680552 0.5757724825174587,0.16940958690575045 0.5713074070344282,0.18332443008938615 C 0.5668423315513976,0.1972392732730219 0.5618703787570098,0.21098634371766486 0.5564014964721421,0.22453813645695206 C 0.5509326141872745,0.23808992919623911 0.544970453419808,0.2514373970977731 0.5385269431863301,0.2645538347149539 C 0.5320834329528522,0.27767027233213487 0.5251628749196668,0.29054692317421754 0.5177791156526065,0.30315802379947754 C 0.5103953563855463,0.31576912442473765 0.5025533252580869,0.3281062557037487 0.4942687125078866,0.34014473365877074 C 0.4859840997576863,0.3521832116137927 0.47726243616505226,0.3639149993964163 0.46812117192526154,0.37531662419258716 C 0.4589799076854707,0.38671824898875795 0.4494251454765561,0.39778209911114726 0.43947600234707157,0.40848603814700535 C 0.42952685921758715,0.4191899771828634 0.419189977182862,0.4295268592175859 0.4084860381470057,0.4394760023470722 C 0.39778209911114926,0.4494251454765586 0.3867182489887393,0.4589799076854473 0.37531662419259615,0.4681211719252727 C 0.3639149993964504,0.4772624361651 0.35218321161354266,0.4859840997573168 0.34014473365892206,0.49426871250810644 C 0.3281062557042584,0.5025533252589255 0.31576912442197097,0.5103953563807109 0.30315802380164963,0.5177791156563162 C 0.2905469231807049,0.5251628749322864 0.27767027230728336,0.5320834329005 0.26455383474122524,0.538526943239808 C 0.2514373971674465,0.5449704535829089 0.23808992902043333,0.5509326137265663 0.22453813672289838,0.5564014971311521 C 0.21098634434366723,0.5618703805687068 0.19723927235566474,0.5668423283735496 0.18332443231790413,0.5713074139793225 C 0.16940959154142263,0.5757724998221412 0.15533625761282402,0.579727684232244 0.14113262371980262,0.5831652079996653 C 0.12692898411796408,0.5866027331487187 0.11260446288154496,0.5895199368852867 0.09818786362829114,0.5919119283276569 C 0.08377122665960553,0.5943039260277436 0.06927193958982908,0.5961671760375232 0.05471937612753488,0.5975028298699184 C 0.04016659931251083,0.5988385032841139 0.02557000737295326,0.599637041922755 0.010958763857316344,0.5999179323356355 C -0.003653520317998804,0.6001988427544331 -0.018269376889193334,0.599929615741003 -0.03286546072189671,0.5991865839568571 C -0.04746601838732277,0.5984433244266973 -0.06202629857481734,0.5971264982372991 -0.07655082900125004,0.5954631477744579 C -0.09109311830944772,0.5937977635629627 -0.1055485350147294,0.5915317076062017 -0.12000023427838692,0.5892079022597884 C -0.13452019141840052,0.5868731211786107 -0.14892732385708907,0.5839626713186695 -0.1634251058583331,0.581493931743651 C -0.17817099544959142,0.5789829434283579 -0.19285674609590547,0.576126229210652 -0.2076997865918911,0.5742740761414782 C -0.2232993161320381,0.5723275264084052 -0.23895061274818047,0.5706659760051158 -0.2546612598261749,0.5701092479494607 C -0.27202281473830225,0.5694940177389294 -0.28940062864164895,0.5700193069092254 -0.30675711905854647,0.5707638454152223 C -0.32634308743245966,0.5716040214693292 -0.3458231835944506,0.5739618504620293 -0.36540658499603484,0.574859871892872 C -0.3864175866782607,0.5758233577249393 -0.4074864917210818,0.5778270592118807 -0.4284672936792903,0.5763450181093694 C -0.4488581318050114,0.57490465084995 -0.46968996698199184,0.5730805015851317 -0.48891565541821924,0.5661354428046403 C -0.5065584420521092,0.5597621890909711 -0.5238376293664772,0.5503663414764823 -0.5371019854214797,0.5371019854214797 C -0.5503663414764823,0.523837629366477 -0.5597621890909714,0.5065584420521091 -0.5661354428046407,0.4889156554182189 C -0.573080501585132,0.4696899669819913 -0.5749046508499505,0.44885813180501055 -0.57634501810937,0.42846729367928915 C -0.5778270592118812,0.4074864917210813 -0.5758233577249396,0.38641758667826054 -0.5748598718928722,0.3654065849960352 C -0.5739618504620294,0.34582318359445086 -0.5716040214693294,0.32634308743246 -0.5707638454152224,0.30675711905854663 C -0.5700193069092255,0.28940062864164917 -0.5694940177389294,0.2720228147383024 -0.5701092479494606,0.2546612598261749 C -0.5706659760051157,0.23895061274818077 -0.572327526408405,0.2232993161320385 -0.5742740761414779,0.20769978659189167 C -0.5761262292106518,0.1928567460959059 -0.5789829434283578,0.17817099544959172 -0.581493931743651,0.16342510585833323 C -0.5839626713186694,0.1489273238570894 -0.5868731211786108,0.13452019141840102 -0.5892079022597884,0.12000023427838763 C -0.5915317076062017,0.1055485350147301 -0.5937977635629625,0.09109311830944838 -0.5954631477744577,0.07655082900125067 C -0.597126498237299,0.062026298574817805 -0.5984433244266973,0.04746601838732297 -0.599186583956857,0.03286546072189681 C -0.5999296157410029,0.018269376889193566 -0.6001988427544331,0.00365352031799907 -0.5999179323356355,-0.010958763857315946 C -0.5996370419227549,-0.025570007372952862 -0.598838503284114,-0.0401665993125104 -0.5975028298699185,-0.05471937612753445 C -0.5961671760375232,-0.06927193958982882 -0.5943039260277436,-0.08377122665960536 -0.5919119283276569,-0.09818786362829107 C -0.5895199368852867,-0.11260446288154474 -0.5866027331487187,-0.1269289841179638 -0.5831652079996653,-0.14113262371980226 C -0.579727684232244,-0.15533625761282369 -0.5757724998221412,-0.1694095915414224 -0.5713074139793225,-0.18332443231790396 C -0.5668423283735495,-0.19723927235566455 -0.5618703805687068,-0.2109863443436671 -0.5564014971311523,-0.22453813672289824 C -0.5509326137265663,-0.23808992902043313 -0.544970453582909,-0.25143739716744623 -0.5385269432398082,-0.2645538347412249 C -0.5320834329005001,-0.2776702723072831 -0.5251628749322866,-0.29054692318070474 -0.5177791156563163,-0.30315802380164947 C -0.510395356380711,-0.31576912442197075 -0.5025533252589257,-0.3281062557042581 -0.4942687125081066,-0.34014473365892167 C -0.48598409975731705,-0.35218321161354244 -0.4772624361651002,-0.3639149993964502 -0.46812117192527275,-0.3753166241925961 C -0.4589799076854473,-0.3867182489887393 -0.4494251454765586,-0.39778209911114926 -0.4394760023470721,-0.40848603814700574 C -0.4295268592175859,-0.419189977182862 -0.4191899771828635,-0.4295268592175871 -0.4084860381470054,-0.4394760023470715 C -0.3977820991111473,-0.44942514547655593 -0.386718248988758,-0.45897990768547064 -0.3753166241925872,-0.4681211719252615 C -0.3639149993964165,-0.47726243616505204 -0.352183211613793,-0.48598409975768614 -0.34014473365877107,-0.49426871250788645 C -0.32810625570374896,-0.5025533252580868 -0.3157691244247378,-0.5103953563855462 -0.3031580237994777,-0.5177791156526065 C -0.29054692317421754,-0.5251628749196668 -0.27767027233213487,-0.5320834329528522 -0.2645538347149538,-0.5385269431863302 C -0.25143739709777296,-0.544970453419808 -0.23808992919623911,-0.5509326141872743 -0.22453813645695211,-0.5564014964721421 C -0.210986343717665,-0.5618703787570097 -0.19723927327302196,-0.5668423315513974 -0.18332443008938618,-0.5713074070344281 C -0.16940958690575061,-0.5757724825174586 -0.15533626048680577,-0.5797276998193803 -0.14113260856778173,-0.5831651453909547 C -0.12692895664875753,-0.5866025909625291 -0.11260446154110244,-0.5895199699763637 -0.09818778351521314,-0.5919114453770679 C -0.08377110548932372,-0.5943029207777721 -0.06927186907217862,-0.5961668960242099 -0.054719084154397975,-0.5974996416980548 C -0.04016629923661763,-0.5988323873718996 -0.02556968120969493,-0.5996330137365093 -0.010958434804155192,-0.5998999189086818 C 0.0036528116013847087,-0.6001668240808542 0.018268931965350732,-0.5998998298755714 0.03286068253718608,-0.5990994704914955 C 0.047452433109021426,-0.5982991111074193 0.06201007248388979,-0.5969659208618503 0.07650447391926482,-0.5951025671851335 C 0.0909988753546398,-0.5932392135084169 0.10542036243564953,-0.590846940369357 0.11974008083157184,-0.5879305341980875 C 0.13405979922749406,-0.5850141280268181 0.1482681891412813,-0.5815755358065362 0.16233682260435442,-0.5776216374294875 C 0.1764054560674276,-0.573667739052439 0.19032494090621713,-0.5692011741282156 0.20406742718979945,-0.5642308793039742 C 0.21780991347338183,-0.5592605844797327 0.23136622676297489,-0.5537898779080005 0.24470924375674202,-0.5478297053099653 C 0.2580522607505098,-0.5418695327119298 0.2711730736940575,-0.535423873079275 0.2840454306291866,-0.5285056228070614 C 0.2969177875643149,-0.5215873725348483 0.30953309494774245,-0.5142011502242738 0.3218661122304632,-0.5063617341364243 C 0.33419912951318437,-0.4985223180485746 0.3462416232133002,-0.490234941751925 0.35796949886024815,-0.4815161865251705 C 0.3696973745071959,-0.47279743129841595 0.38110280260964907,-0.46365311775395757 0.3921629633299133,-0.45410154171980194 C 0.40322312405017763,-0.44454996568564636 0.413930633661222,-0.434597503762635 0.4242640687119284,-0.4242640687119286" /><path
    d="M0.23775-0.10050C0.23325-0.10050 0.23100-0.10125 0.22950-0.10950C0.22200-0.15300 0.21300-0.20175 0.20100-0.24600L0.14325-0.45975C0.13275-0.50025 0.11475-0.51900 0.07875-0.51900C0.05250-0.51900 0.02775-0.51075 0.00675-0.50175L0.13125-0.04950C0.14475-0.00375 0.17250 0.00450 0.21225 0.00450C0.24300 0.00450 0.27975 0.00300 0.30825 0L0.44850-0.50250L0.44400-0.50850C0.42750-0.51450 0.40350-0.51675 0.38850-0.51675C0.37275-0.51675 0.35400-0.51675 0.33600-0.51225ZM0.75600-0.14925C0.76350-0.17400 0.76575-0.19350 0.76575-0.22650C0.76575-0.31725 0.70875-0.38550 0.60975-0.38550C0.49050-0.38550 0.44175-0.29775 0.44175-0.18450C0.44175-0.08550 0.47700 0.01125 0.60900 0.01125C0.66150 0.01125 0.71850-0.00450 0.75600-0.03150C0.75300-0.05475 0.74250-0.08325 0.72525-0.10050C0.69450-0.08850 0.66150-0.07800 0.62775-0.07800C0.57825-0.07800 0.56400-0.10875 0.56025-0.14925ZM0.60900-0.30225C0.64425-0.30225 0.65850-0.27300 0.65850-0.23850L0.65850-0.23025L0.55950-0.23025C0.56250-0.27900 0.57600-0.30225 0.60900-0.30225Z"
    fill="#000000"
    fill-opacity="1"
    transform="translate(-0.3795 0.265125)"
   />
      </g>
    </svg>
